 <svg width="0" height="0" class="hidden">
                  <symbol fill="none" xmlns="http://www.w3.org/2000/svg" viewBox="0 0 20 20" id="facebook">
                    <path
                      d="M18.9 0H1.1C.5 0 0 .5 0 1.1v17.8c0 .6.5 1.1 1.1 1.1h9.6v-7.7H8v-3h2.6V7c0-2.6 1.6-4 3.9-4l2.3.1v2.7h-1.6c-1.3 0-1.5.6-1.5 1.5v2h3l-.4 3h-2.6V20h5.1c.6 0 1.1-.5 1.1-1.1V1.1c0-.6-.5-1.1-1.1-1.1z"
                      fill="currentColor"></path>
                  </symbol>

                  <symbol fill="none" xmlns="http://www.w3.org/2000/svg" viewBox="0 0 21 20" id="youtube">
                    <path fill-rule="evenodd" clip-rule="evenodd"
                      d="M10.333 0c-5.522 0-10 4.478-10 10 0 5.523 4.478 10 10 10 5.523 0 10-4.477 10-10 0-5.522-4.477-10-10-10zm3.701 14.077c-1.752.12-5.653.12-7.402 0C4.735 13.947 4.514 13.018 4.5 10c.014-3.024.237-3.947 2.132-4.077 1.749-.12 5.651-.12 7.402 0 1.898.13 2.118 1.059 2.133 4.077-.015 3.024-.238 3.947-2.133 4.077zm-1.27-4.08L8.667 8.048v3.904l4.097-1.955z"
                      fill="currentColor"></path>
                  </symbol>

                  <symbol fill="none" xmlns="http://www.w3.org/2000/svg" viewBox="0 0 21 18" id="twitter">
                    <path
                      d="M20.667 2.797a8.192 8.192 0 01-2.357.646 4.11 4.11 0 001.804-2.27 8.22 8.22 0 01-2.606.996A4.096 4.096 0 0014.513.873c-2.649 0-4.595 2.472-3.997 5.038a11.648 11.648 0 01-8.457-4.287 4.109 4.109 0 001.27 5.478A4.086 4.086 0 011.47 6.59c-.045 1.901 1.317 3.68 3.29 4.075a4.111 4.111 0 01-1.853.07 4.106 4.106 0 003.834 2.85 8.25 8.25 0 01-6.075 1.7 11.616 11.616 0 006.29 1.843c7.618 0 11.922-6.434 11.662-12.205a8.353 8.353 0 002.048-2.125z"
                      fill="currentColor"></path>
                  </symbol>

                   <symbol fill="none" xmlns="http://www.w3.org/2000/svg" viewBox="0 0 20 20" id="pinterest">
                    <path
                      d="M10 0a10 10 0 00-3.6 19.3c-.1-.8-.2-2 0-2.9l1.2-5s-.3-.5-.3-1.4c0-1.4.8-2.4 1.8-2.4.8 0 1.2.6 1.2 1.4 0 .8-.5 2.1-.8 3.3-.2 1 .5 1.8 1.5 1.8 1.8 0 3.1-1.9 3.1-4.6 0-2.4-1.7-4-4.1-4a4.3 4.3 0 00-4.6 4.3c0 .9.4 1.8.8 2.3v.3L6 13.5c0 .2-.2.2-.4.1-1.2-.5-2-2.4-2-3.8 0-3.2 2.3-6 6.6-6 3.5 0 6.2 2.4 6.2 5.7 0 3.4-2.2 6.2-5.2 6.2-1 0-2-.5-2.3-1.1l-.6 2.3c-.2.9-.9 2-1.3 2.7A10 10 0 0020 10 10 10 0 0010 0z"
                      fill="currentColor"></path>
                  </symbol>

                   <symbol fill="none" xmlns="http://www.w3.org/2000/svg" viewBox="0 0 21 20" id="instagram">
                    <path fill-rule="evenodd" clip-rule="evenodd"
                      d="M10.3 0h-4C2.5.3.5 2.3.2 6a70.2 70.2 0 000 8.2c.3 3.7 2.3 5.7 6 5.8a71.4 71.4 0 008.2 0c3.6-.1 5.6-2.1 5.8-5.8a70.2 70.2 0 000-8.2C20 2.2 18 .2 14.5 0h-4.2zm0 1.8h4c2.8.2 4 1.5 4.2 4.2a69.5 69.5 0 010 8c-.1 2.7-1.4 4-4.1 4.1a69 69 0 01-8.1 0c-2.7 0-4-1.4-4.1-4a69.2 69.2 0 010-8.1c.1-2.7 1.4-4 4-4.1l4.1-.1zM5.2 10a5.1 5.1 0 1110.3 0 5.1 5.1 0 01-10.3 0zm5.1 3.3a3.3 3.3 0 110-6.6 3.3 3.3 0 010 6.6zm4.2-8.6a1.2 1.2 0 112.4 0 1.2 1.2 0 01-2.4 0z"
                      fill="currentColor"></path>
                  </symbol>
                </svg>